<?xml version="1.0" standalone="no"?>
<!DOCTYPE svg PUBLIC "-//W3C//DTD SVG 20010904//EN"
 "http://www.w3.org/TR/2001/REC-SVG-20010904/DTD/svg10.dtd">
<svg version="1.0" xmlns="http://www.w3.org/2000/svg"
 width="300.000000pt" height="225.000000pt" viewBox="0 0 300.000000 225.000000"
 preserveAspectRatio="xMidYMid meet">
<metadata>
Created by potrace 1.10, written by Peter Selinger 2001-2011
</metadata>
<g transform="translate(0.000000,225.000000) scale(0.100000,-0.100000)"
fill="#0c0c0c" stroke="none">
<path d="M1480 1634 l0 -110 -102 -28 c-57 -16 -161 -50 -233 -76 -127 -46
-132 -47 -205 -40 -158 17 -302 -27 -415 -127 -47 -41 -113 -133 -135 -188
-17 -44 -45 -83 -104 -146 -101 -106 -139 -178 -144 -271 -7 -117 50 -194 189
-257 172 -77 465 -102 779 -65 141 16 198 31 72 19 -41 -4 -101 -9 -135 -11
-34 -2 -105 -7 -157 -10 -86 -6 -197 5 -345 32 -222 40 -345 116 -374 228 -22
87 12 176 112 300 23 28 49 62 57 74 14 21 15 14 16 -95 1 -131 19 -197 74
-284 38 -58 120 -137 181 -172 67 -39 192 -69 278 -65 l71 3 3 196 2 196 -32
-14 c-122 -51 -235 59 -188 183 34 90 146 125 215 68 59 -50 60 -58 60 -349
l0 -265 128 -2 c70 0 153 0 184 1 60 3 137 24 121 34 -5 3 -15 2 -23 -4 -8 -5
-18 -9 -22 -9 -3 0 -8 136 -10 303 -4 279 -6 307 -26 368 -45 135 -153 252
-271 295 -55 19 -66 34 -27 34 14 0 96 23 183 51 136 43 174 57 216 77 4 2 7
-253 7 -567 l0 -571 190 0 189 0 0 296 c0 329 2 344 61 344 67 0 72 -28 68
-378 l-3 -262 188 0 187 0 0 168 0 168 48 23 c95 46 279 177 367 262 100 97
158 184 176 264 36 161 -96 293 -351 350 -150 34 -664 29 -719 -6 -11 -7 22
-8 104 -4 545 30 778 -15 907 -176 23 -29 31 -50 35 -97 5 -56 3 -67 -32 -136
-59 -118 -215 -266 -387 -367 -29 -17 -72 -46 -95 -65 -23 -19 -44 -34 -46
-34 -3 0 -7 93 -9 208 -5 237 -16 282 -90 366 -57 66 -106 89 -203 94 -76 4
-84 2 -146 -30 l-65 -34 0 208 1 208 -188 3 -187 2 0 -111z m332 53 c4 -7 8
-84 8 -172 0 -212 10 -228 107 -184 133 60 270 22 346 -96 55 -84 60 -137 52
-490 -4 -176 -9 -323 -11 -327 -9 -13 -272 -10 -280 4 -4 6 -10 132 -13 279
-6 251 -7 269 -27 296 -42 56 -106 56 -148 0 -20 -27 -21 -43 -24 -290 -2
-144 -8 -269 -13 -279 -9 -17 -24 -18 -152 -16 l-142 3 -3 470 c-2 259 0 547
3 642 l7 172 67 3 c106 5 215 -3 223 -15z m-718 -373 c64 -25 153 -98 194
-159 67 -102 75 -148 80 -456 3 -238 2 -277 -11 -288 -20 -16 -266 -27 -287
-12 -13 9 -15 49 -17 243 -1 128 -5 243 -8 256 -10 42 -55 98 -90 115 -131 63
-283 -62 -245 -202 22 -82 86 -131 170 -131 l51 0 -3 -153 -3 -152 -77 2
c-165 5 -306 85 -392 221 -47 76 -68 151 -70 252 -1 83 3 105 28 168 58 149
160 251 302 302 52 18 76 20 194 17 100 -4 148 -9 184 -23z"/>
<path d="M1890 520 c-33 -26 -8 -26 45 -1 l40 19 -30 1 c-16 0 -41 -8 -55 -19z"/>
</g>
</svg>
